<mxfile host="65bd71144e">
    <diagram id="-i3ILlnNoziEZ9GjBhWA" name="第 1 页">
        <mxGraphModel dx="1922" dy="681" grid="1" gridSize="10" guides="1" tooltips="1" connect="1" arrows="1" fold="1" page="1" pageScale="1" pageWidth="827" pageHeight="1169" math="0" shadow="0">
            <root>
                <mxCell id="0"/>
                <mxCell id="1" parent="0"/>
                <mxCell id="11" value="FIFO" style="strokeWidth=2;html=1;shape=mxgraph.lean_mapping.fifo_sequence_flow;pointerEvents=1;fontStyle=0;fontSize=20;align=center;" parent="1" vertex="1">
                    <mxGeometry x="410" y="435" width="100" height="50" as="geometry"/>
                </mxCell>
                <mxCell id="12" value="Entity" style="shadow=0;dashed=0;align=center;html=1;strokeWidth=1;shape=mxgraph.rtl.abstract.entity;container=1;collapsible=0;kind=sequential;drawPins=0;left=3;right=2;bottom=0;top=0;" parent="1" vertex="1">
                    <mxGeometry x="130" y="220" width="80" height="120" as="geometry"/>
                </mxCell>
                <mxCell id="82" value="" style="group;fillColor=#fff2cc;strokeColor=#d6b656;" parent="1" vertex="1" connectable="0">
                    <mxGeometry x="70" y="110" width="640" height="40" as="geometry"/>
                </mxCell>
                <mxCell id="48" value="" style="group;movable=1;resizable=1;rotatable=1;deletable=1;editable=1;connectable=1;fillColor=#fff2cc;strokeColor=#d6b656;" parent="82" vertex="1" connectable="0">
                    <mxGeometry width="320" height="40" as="geometry"/>
                </mxCell>
                <mxCell id="30" value="" style="group;movable=1;resizable=1;rotatable=1;deletable=1;editable=1;connectable=1;fillColor=#dae8fc;strokeColor=#6c8ebf;" parent="48" vertex="1" connectable="0">
                    <mxGeometry width="160" height="40" as="geometry"/>
                </mxCell>
                <mxCell id="22" value="" style="group;movable=1;resizable=1;rotatable=1;deletable=1;editable=1;connectable=1;" parent="30" vertex="1" connectable="0">
                    <mxGeometry width="80" height="40" as="geometry"/>
                </mxCell>
                <mxCell id="16" value="" style="group;movable=1;resizable=1;rotatable=1;deletable=1;editable=1;connectable=1;" parent="22" vertex="1" connectable="0">
                    <mxGeometry width="40" height="40" as="geometry"/>
                </mxCell>
                <mxCell id="14" value="" style="rounded=0;whiteSpace=wrap;html=1;movable=1;resizable=1;rotatable=1;deletable=1;editable=1;connectable=1;fillColor=#dae8fc;strokeColor=#6c8ebf;" parent="16" vertex="1">
                    <mxGeometry width="20" height="40" as="geometry"/>
                </mxCell>
                <mxCell id="15" value="" style="rounded=0;whiteSpace=wrap;html=1;movable=1;resizable=1;rotatable=1;deletable=1;editable=1;connectable=1;fillColor=#dae8fc;strokeColor=#6c8ebf;" parent="16" vertex="1">
                    <mxGeometry x="20" width="20" height="40" as="geometry"/>
                </mxCell>
                <mxCell id="19" value="" style="group;movable=1;resizable=1;rotatable=1;deletable=1;editable=1;connectable=1;fillColor=#dae8fc;strokeColor=#6c8ebf;" parent="22" vertex="1" connectable="0">
                    <mxGeometry x="40" width="40" height="40" as="geometry"/>
                </mxCell>
                <mxCell id="20" value="" style="rounded=0;whiteSpace=wrap;html=1;movable=1;resizable=1;rotatable=1;deletable=1;editable=1;connectable=1;fillColor=#dae8fc;strokeColor=#6c8ebf;" parent="19" vertex="1">
                    <mxGeometry width="20" height="40" as="geometry"/>
                </mxCell>
                <mxCell id="21" value="" style="rounded=0;whiteSpace=wrap;html=1;movable=1;resizable=1;rotatable=1;deletable=1;editable=1;connectable=1;fillColor=#dae8fc;strokeColor=#6c8ebf;" parent="19" vertex="1">
                    <mxGeometry x="20" width="20" height="40" as="geometry"/>
                </mxCell>
                <mxCell id="23" value="" style="group;movable=1;resizable=1;rotatable=1;deletable=1;editable=1;connectable=1;fillColor=#d5e8d4;strokeColor=#82b366;" parent="30" vertex="1" connectable="0">
                    <mxGeometry x="80" width="80" height="40" as="geometry"/>
                </mxCell>
                <mxCell id="24" value="" style="group;movable=1;resizable=1;rotatable=1;deletable=1;editable=1;connectable=1;fillColor=#d5e8d4;strokeColor=#82b366;" parent="23" vertex="1" connectable="0">
                    <mxGeometry width="40" height="40" as="geometry"/>
                </mxCell>
                <mxCell id="25" value="" style="rounded=0;whiteSpace=wrap;html=1;movable=1;resizable=1;rotatable=1;deletable=1;editable=1;connectable=1;fillColor=#d5e8d4;strokeColor=#82b366;" parent="24" vertex="1">
                    <mxGeometry width="20" height="40" as="geometry"/>
                </mxCell>
                <mxCell id="26" value="" style="rounded=0;whiteSpace=wrap;html=1;movable=1;resizable=1;rotatable=1;deletable=1;editable=1;connectable=1;fillColor=#d5e8d4;strokeColor=#82b366;" parent="24" vertex="1">
                    <mxGeometry x="20" width="20" height="40" as="geometry"/>
                </mxCell>
                <mxCell id="27" value="" style="group;movable=1;resizable=1;rotatable=1;deletable=1;editable=1;connectable=1;" parent="23" vertex="1" connectable="0">
                    <mxGeometry x="40" width="40" height="40" as="geometry"/>
                </mxCell>
                <mxCell id="28" value="" style="rounded=0;whiteSpace=wrap;html=1;movable=1;resizable=1;rotatable=1;deletable=1;editable=1;connectable=1;fillColor=#d5e8d4;strokeColor=#82b366;" parent="27" vertex="1">
                    <mxGeometry width="20" height="40" as="geometry"/>
                </mxCell>
                <mxCell id="29" value="" style="rounded=0;whiteSpace=wrap;html=1;movable=1;resizable=1;rotatable=1;deletable=1;editable=1;connectable=1;fillColor=#d5e8d4;strokeColor=#82b366;" parent="27" vertex="1">
                    <mxGeometry x="20" width="20" height="40" as="geometry"/>
                </mxCell>
                <mxCell id="33" value="" style="group;movable=1;resizable=1;rotatable=1;deletable=1;editable=1;connectable=1;" parent="48" vertex="1" connectable="0">
                    <mxGeometry x="160" width="160" height="40" as="geometry"/>
                </mxCell>
                <mxCell id="34" value="" style="group;movable=1;resizable=1;rotatable=1;deletable=1;editable=1;connectable=1;" parent="33" vertex="1" connectable="0">
                    <mxGeometry width="80" height="40" as="geometry"/>
                </mxCell>
                <mxCell id="35" value="" style="group;movable=1;resizable=1;rotatable=1;deletable=1;editable=1;connectable=1;" parent="34" vertex="1" connectable="0">
                    <mxGeometry width="40" height="40" as="geometry"/>
                </mxCell>
                <mxCell id="36" value="" style="rounded=0;whiteSpace=wrap;html=1;movable=1;resizable=1;rotatable=1;deletable=1;editable=1;connectable=1;fillColor=#f8cecc;strokeColor=#b85450;" parent="35" vertex="1">
                    <mxGeometry width="20" height="40" as="geometry"/>
                </mxCell>
                <mxCell id="37" value="" style="rounded=0;whiteSpace=wrap;html=1;movable=1;resizable=1;rotatable=1;deletable=1;editable=1;connectable=1;fillColor=#f8cecc;strokeColor=#b85450;" parent="35" vertex="1">
                    <mxGeometry x="20" width="20" height="40" as="geometry"/>
                </mxCell>
                <mxCell id="38" value="" style="group;movable=1;resizable=1;rotatable=1;deletable=1;editable=1;connectable=1;" parent="34" vertex="1" connectable="0">
                    <mxGeometry x="40" width="40" height="40" as="geometry"/>
                </mxCell>
                <mxCell id="39" value="" style="rounded=0;whiteSpace=wrap;html=1;movable=1;resizable=1;rotatable=1;deletable=1;editable=1;connectable=1;fillColor=#f8cecc;strokeColor=#b85450;" parent="38" vertex="1">
                    <mxGeometry width="20" height="40" as="geometry"/>
                </mxCell>
                <mxCell id="40" value="" style="rounded=0;whiteSpace=wrap;html=1;movable=1;resizable=1;rotatable=1;deletable=1;editable=1;connectable=1;fillColor=#f8cecc;strokeColor=#b85450;" parent="38" vertex="1">
                    <mxGeometry x="20" width="20" height="40" as="geometry"/>
                </mxCell>
                <mxCell id="41" value="" style="group;movable=1;resizable=1;rotatable=1;deletable=1;editable=1;connectable=1;" parent="33" vertex="1" connectable="0">
                    <mxGeometry x="80" width="80" height="40" as="geometry"/>
                </mxCell>
                <mxCell id="42" value="" style="group;movable=1;resizable=1;rotatable=1;deletable=1;editable=1;connectable=1;" parent="41" vertex="1" connectable="0">
                    <mxGeometry width="40" height="40" as="geometry"/>
                </mxCell>
                <mxCell id="43" value="" style="rounded=0;whiteSpace=wrap;html=1;movable=1;resizable=1;rotatable=1;deletable=1;editable=1;connectable=1;fillColor=#fff2cc;strokeColor=#d6b656;" parent="42" vertex="1">
                    <mxGeometry width="20" height="40" as="geometry"/>
                </mxCell>
                <mxCell id="44" value="" style="rounded=0;whiteSpace=wrap;html=1;movable=1;resizable=1;rotatable=1;deletable=1;editable=1;connectable=1;fillColor=#fff2cc;strokeColor=#d6b656;" parent="42" vertex="1">
                    <mxGeometry x="20" width="20" height="40" as="geometry"/>
                </mxCell>
                <mxCell id="45" value="" style="group;movable=1;resizable=1;rotatable=1;deletable=1;editable=1;connectable=1;" parent="41" vertex="1" connectable="0">
                    <mxGeometry x="40" width="40" height="40" as="geometry"/>
                </mxCell>
                <mxCell id="46" value="" style="rounded=0;whiteSpace=wrap;html=1;movable=1;resizable=1;rotatable=1;deletable=1;editable=1;connectable=1;fillColor=#fff2cc;strokeColor=#d6b656;" parent="45" vertex="1">
                    <mxGeometry width="20" height="40" as="geometry"/>
                </mxCell>
                <mxCell id="47" value="" style="rounded=0;whiteSpace=wrap;html=1;movable=1;resizable=1;rotatable=1;deletable=1;editable=1;connectable=1;fillColor=#fff2cc;strokeColor=#d6b656;" parent="45" vertex="1">
                    <mxGeometry x="20" width="20" height="40" as="geometry"/>
                </mxCell>
                <mxCell id="51" value="" style="group;movable=1;resizable=1;rotatable=1;deletable=1;editable=1;connectable=1;" parent="82" vertex="1" connectable="0">
                    <mxGeometry x="320" width="320" height="40" as="geometry"/>
                </mxCell>
                <mxCell id="52" value="" style="group;movable=1;resizable=1;rotatable=1;deletable=1;editable=1;connectable=1;" parent="51" vertex="1" connectable="0">
                    <mxGeometry width="160" height="40" as="geometry"/>
                </mxCell>
                <mxCell id="53" value="" style="group;movable=1;resizable=1;rotatable=1;deletable=1;editable=1;connectable=1;" parent="52" vertex="1" connectable="0">
                    <mxGeometry width="80" height="40" as="geometry"/>
                </mxCell>
                <mxCell id="54" value="" style="group;movable=1;resizable=1;rotatable=1;deletable=1;editable=1;connectable=1;" parent="53" vertex="1" connectable="0">
                    <mxGeometry width="40" height="40" as="geometry"/>
                </mxCell>
                <mxCell id="55" value="" style="rounded=0;whiteSpace=wrap;html=1;movable=1;resizable=1;rotatable=1;deletable=1;editable=1;connectable=1;" parent="54" vertex="1">
                    <mxGeometry width="20" height="40" as="geometry"/>
                </mxCell>
                <mxCell id="56" value="" style="rounded=0;whiteSpace=wrap;html=1;movable=1;resizable=1;rotatable=1;deletable=1;editable=1;connectable=1;" parent="54" vertex="1">
                    <mxGeometry x="20" width="20" height="40" as="geometry"/>
                </mxCell>
                <mxCell id="57" value="" style="group;movable=1;resizable=1;rotatable=1;deletable=1;editable=1;connectable=1;" parent="53" vertex="1" connectable="0">
                    <mxGeometry x="40" width="40" height="40" as="geometry"/>
                </mxCell>
                <mxCell id="58" value="" style="rounded=0;whiteSpace=wrap;html=1;movable=1;resizable=1;rotatable=1;deletable=1;editable=1;connectable=1;" parent="57" vertex="1">
                    <mxGeometry width="20" height="40" as="geometry"/>
                </mxCell>
                <mxCell id="59" value="" style="rounded=0;whiteSpace=wrap;html=1;movable=1;resizable=1;rotatable=1;deletable=1;editable=1;connectable=1;" parent="57" vertex="1">
                    <mxGeometry x="20" width="20" height="40" as="geometry"/>
                </mxCell>
                <mxCell id="60" value="" style="group;movable=1;resizable=1;rotatable=1;deletable=1;editable=1;connectable=1;" parent="52" vertex="1" connectable="0">
                    <mxGeometry x="80" width="80" height="40" as="geometry"/>
                </mxCell>
                <mxCell id="61" value="" style="group;movable=1;resizable=1;rotatable=1;deletable=1;editable=1;connectable=1;" parent="60" vertex="1" connectable="0">
                    <mxGeometry width="40" height="40" as="geometry"/>
                </mxCell>
                <mxCell id="62" value="" style="rounded=0;whiteSpace=wrap;html=1;movable=1;resizable=1;rotatable=1;deletable=1;editable=1;connectable=1;" parent="61" vertex="1">
                    <mxGeometry width="20" height="40" as="geometry"/>
                </mxCell>
                <mxCell id="63" value="" style="rounded=0;whiteSpace=wrap;html=1;movable=1;resizable=1;rotatable=1;deletable=1;editable=1;connectable=1;" parent="61" vertex="1">
                    <mxGeometry x="20" width="20" height="40" as="geometry"/>
                </mxCell>
                <mxCell id="64" value="" style="group;movable=1;resizable=1;rotatable=1;deletable=1;editable=1;connectable=1;" parent="60" vertex="1" connectable="0">
                    <mxGeometry x="40" width="40" height="40" as="geometry"/>
                </mxCell>
                <mxCell id="65" value="" style="rounded=0;whiteSpace=wrap;html=1;movable=1;resizable=1;rotatable=1;deletable=1;editable=1;connectable=1;" parent="64" vertex="1">
                    <mxGeometry width="20" height="40" as="geometry"/>
                </mxCell>
                <mxCell id="66" value="" style="rounded=0;whiteSpace=wrap;html=1;movable=1;resizable=1;rotatable=1;deletable=1;editable=1;connectable=1;" parent="64" vertex="1">
                    <mxGeometry x="20" width="20" height="40" as="geometry"/>
                </mxCell>
                <mxCell id="67" value="" style="group;movable=1;resizable=1;rotatable=1;deletable=1;editable=1;connectable=1;" parent="51" vertex="1" connectable="0">
                    <mxGeometry x="160" width="160" height="40" as="geometry"/>
                </mxCell>
                <mxCell id="68" value="" style="group;movable=1;resizable=1;rotatable=1;deletable=1;editable=1;connectable=1;" parent="67" vertex="1" connectable="0">
                    <mxGeometry width="80" height="40" as="geometry"/>
                </mxCell>
                <mxCell id="69" value="" style="group;movable=1;resizable=1;rotatable=1;deletable=1;editable=1;connectable=1;" parent="68" vertex="1" connectable="0">
                    <mxGeometry width="40" height="40" as="geometry"/>
                </mxCell>
                <mxCell id="70" value="" style="rounded=0;whiteSpace=wrap;html=1;movable=1;resizable=1;rotatable=1;deletable=1;editable=1;connectable=1;" parent="69" vertex="1">
                    <mxGeometry width="20" height="40" as="geometry"/>
                </mxCell>
                <mxCell id="71" value="" style="rounded=0;whiteSpace=wrap;html=1;movable=1;resizable=1;rotatable=1;deletable=1;editable=1;connectable=1;" parent="69" vertex="1">
                    <mxGeometry x="20" width="20" height="40" as="geometry"/>
                </mxCell>
                <mxCell id="72" value="" style="group;movable=1;resizable=1;rotatable=1;deletable=1;editable=1;connectable=1;" parent="68" vertex="1" connectable="0">
                    <mxGeometry x="40" width="40" height="40" as="geometry"/>
                </mxCell>
                <mxCell id="73" value="" style="rounded=0;whiteSpace=wrap;html=1;movable=1;resizable=1;rotatable=1;deletable=1;editable=1;connectable=1;" parent="72" vertex="1">
                    <mxGeometry width="20" height="40" as="geometry"/>
                </mxCell>
                <mxCell id="74" value="" style="rounded=0;whiteSpace=wrap;html=1;movable=1;resizable=1;rotatable=1;deletable=1;editable=1;connectable=1;" parent="72" vertex="1">
                    <mxGeometry x="20" width="20" height="40" as="geometry"/>
                </mxCell>
                <mxCell id="75" value="" style="group;movable=1;resizable=1;rotatable=1;deletable=1;editable=1;connectable=1;" parent="67" vertex="1" connectable="0">
                    <mxGeometry x="80" width="80" height="40" as="geometry"/>
                </mxCell>
                <mxCell id="76" value="" style="group;movable=1;resizable=1;rotatable=1;deletable=1;editable=1;connectable=1;" parent="75" vertex="1" connectable="0">
                    <mxGeometry width="40" height="40" as="geometry"/>
                </mxCell>
                <mxCell id="77" value="" style="rounded=0;whiteSpace=wrap;html=1;movable=1;resizable=1;rotatable=1;deletable=1;editable=1;connectable=1;" parent="76" vertex="1">
                    <mxGeometry width="20" height="40" as="geometry"/>
                </mxCell>
                <mxCell id="78" value="" style="rounded=0;whiteSpace=wrap;html=1;movable=1;resizable=1;rotatable=1;deletable=1;editable=1;connectable=1;" parent="76" vertex="1">
                    <mxGeometry x="20" width="20" height="40" as="geometry"/>
                </mxCell>
                <mxCell id="79" value="" style="group;movable=1;resizable=1;rotatable=1;deletable=1;editable=1;connectable=1;" parent="75" vertex="1" connectable="0">
                    <mxGeometry x="40" width="40" height="40" as="geometry"/>
                </mxCell>
                <mxCell id="80" value="" style="rounded=0;whiteSpace=wrap;html=1;movable=1;resizable=1;rotatable=1;deletable=1;editable=1;connectable=1;" parent="79" vertex="1">
                    <mxGeometry width="20" height="40" as="geometry"/>
                </mxCell>
                <mxCell id="81" value="" style="rounded=0;whiteSpace=wrap;html=1;movable=1;resizable=1;rotatable=1;deletable=1;editable=1;connectable=1;" parent="79" vertex="1">
                    <mxGeometry x="20" width="20" height="40" as="geometry"/>
                </mxCell>
                <mxCell id="85" value="0" style="text;html=1;align=center;verticalAlign=middle;resizable=0;points=[];autosize=1;strokeColor=none;fillColor=none;" parent="1" vertex="1">
                    <mxGeometry x="55" y="145" width="30" height="30" as="geometry"/>
                </mxCell>
                <mxCell id="86" value="1" style="text;html=1;align=center;verticalAlign=middle;resizable=0;points=[];autosize=1;strokeColor=none;fillColor=none;" parent="1" vertex="1">
                    <mxGeometry x="75" y="145" width="30" height="30" as="geometry"/>
                </mxCell>
                <mxCell id="87" value="2" style="text;html=1;align=center;verticalAlign=middle;resizable=0;points=[];autosize=1;strokeColor=none;fillColor=none;" parent="1" vertex="1">
                    <mxGeometry x="95" y="145" width="30" height="30" as="geometry"/>
                </mxCell>
                <mxCell id="88" value="3" style="text;html=1;align=center;verticalAlign=middle;resizable=0;points=[];autosize=1;strokeColor=none;fillColor=none;" parent="1" vertex="1">
                    <mxGeometry x="115" y="145" width="30" height="30" as="geometry"/>
                </mxCell>
                <mxCell id="90" value="4" style="text;html=1;align=center;verticalAlign=middle;resizable=0;points=[];autosize=1;strokeColor=none;fillColor=none;" parent="1" vertex="1">
                    <mxGeometry x="135" y="145" width="30" height="30" as="geometry"/>
                </mxCell>
                <mxCell id="92" value="5" style="text;html=1;align=center;verticalAlign=middle;resizable=0;points=[];autosize=1;strokeColor=none;fillColor=none;" parent="1" vertex="1">
                    <mxGeometry x="155" y="145" width="30" height="30" as="geometry"/>
                </mxCell>
                <mxCell id="93" value="6" style="text;html=1;align=center;verticalAlign=middle;resizable=0;points=[];autosize=1;strokeColor=none;fillColor=none;" parent="1" vertex="1">
                    <mxGeometry x="175" y="145" width="30" height="30" as="geometry"/>
                </mxCell>
                <mxCell id="94" value="7" style="text;html=1;align=center;verticalAlign=middle;resizable=0;points=[];autosize=1;strokeColor=none;fillColor=none;" parent="1" vertex="1">
                    <mxGeometry x="195" y="145" width="30" height="30" as="geometry"/>
                </mxCell>
                <mxCell id="95" value="8" style="text;html=1;align=center;verticalAlign=middle;resizable=0;points=[];autosize=1;strokeColor=none;fillColor=none;" parent="1" vertex="1">
                    <mxGeometry x="215" y="145" width="30" height="30" as="geometry"/>
                </mxCell>
                <mxCell id="96" value="9" style="text;html=1;align=center;verticalAlign=middle;resizable=0;points=[];autosize=1;strokeColor=none;fillColor=none;" parent="1" vertex="1">
                    <mxGeometry x="235" y="145" width="30" height="30" as="geometry"/>
                </mxCell>
                <mxCell id="97" value="10" style="text;html=1;align=center;verticalAlign=middle;resizable=0;points=[];autosize=1;strokeColor=none;fillColor=none;" parent="1" vertex="1">
                    <mxGeometry x="250" y="145" width="40" height="30" as="geometry"/>
                </mxCell>
                <mxCell id="100" value="11" style="text;html=1;align=center;verticalAlign=middle;resizable=0;points=[];autosize=1;strokeColor=none;fillColor=none;" parent="1" vertex="1">
                    <mxGeometry x="270" y="145" width="40" height="30" as="geometry"/>
                </mxCell>
                <mxCell id="101" value="12" style="text;html=1;align=center;verticalAlign=middle;resizable=0;points=[];autosize=1;strokeColor=none;fillColor=none;" parent="1" vertex="1">
                    <mxGeometry x="290" y="145" width="40" height="30" as="geometry"/>
                </mxCell>
                <mxCell id="102" value="13" style="text;html=1;align=center;verticalAlign=middle;resizable=0;points=[];autosize=1;strokeColor=none;fillColor=none;" parent="1" vertex="1">
                    <mxGeometry x="310" y="145" width="40" height="30" as="geometry"/>
                </mxCell>
                <mxCell id="103" value="14" style="text;html=1;align=center;verticalAlign=middle;resizable=0;points=[];autosize=1;strokeColor=none;fillColor=none;" parent="1" vertex="1">
                    <mxGeometry x="330" y="145" width="40" height="30" as="geometry"/>
                </mxCell>
                <mxCell id="104" value="15" style="text;html=1;align=center;verticalAlign=middle;resizable=0;points=[];autosize=1;strokeColor=none;fillColor=none;" parent="1" vertex="1">
                    <mxGeometry x="350" y="145" width="40" height="30" as="geometry"/>
                </mxCell>
                <mxCell id="105" value="16" style="text;html=1;align=center;verticalAlign=middle;resizable=0;points=[];autosize=1;strokeColor=none;fillColor=none;" parent="1" vertex="1">
                    <mxGeometry x="370" y="145" width="40" height="30" as="geometry"/>
                </mxCell>
                <mxCell id="106" value="17" style="text;html=1;align=center;verticalAlign=middle;resizable=0;points=[];autosize=1;strokeColor=none;fillColor=none;" parent="1" vertex="1">
                    <mxGeometry x="390" y="145" width="40" height="30" as="geometry"/>
                </mxCell>
                <mxCell id="107" value="18" style="text;html=1;align=center;verticalAlign=middle;resizable=0;points=[];autosize=1;strokeColor=none;fillColor=none;" parent="1" vertex="1">
                    <mxGeometry x="410" y="145" width="40" height="30" as="geometry"/>
                </mxCell>
                <mxCell id="108" value="19" style="text;html=1;align=center;verticalAlign=middle;resizable=0;points=[];autosize=1;strokeColor=none;fillColor=none;" parent="1" vertex="1">
                    <mxGeometry x="430" y="145" width="40" height="30" as="geometry"/>
                </mxCell>
                <mxCell id="109" value="20&lt;br&gt;" style="text;html=1;align=center;verticalAlign=middle;resizable=0;points=[];autosize=1;strokeColor=none;fillColor=none;" parent="1" vertex="1">
                    <mxGeometry x="450" y="145" width="40" height="30" as="geometry"/>
                </mxCell>
                <mxCell id="120" value="取指令命令" style="swimlane;fontStyle=0;childLayout=stackLayout;horizontal=1;startSize=26;fillColor=none;horizontalStack=0;resizeParent=1;resizeParentMax=0;resizeLast=0;collapsible=1;marginBottom=0;html=1;" parent="1" vertex="1">
                    <mxGeometry x="-70" y="211" width="140" height="390" as="geometry"/>
                </mxCell>
                <mxCell id="121" value="1. 数据来自于 Cache&lt;br&gt;data size ：64bit&lt;br&gt;pc[63:3] 为地址&lt;br&gt;pc[2:0] 为 offset（0,2,4,6）" style="text;strokeColor=none;fillColor=none;align=left;verticalAlign=top;spacingLeft=4;spacingRight=4;overflow=hidden;rotatable=0;points=[[0,0.5],[1,0.5]];portConstraint=eastwest;whiteSpace=wrap;html=1;" parent="120" vertex="1">
                    <mxGeometry y="26" width="140" height="84" as="geometry"/>
                </mxCell>
                <mxCell id="122" value="2. 数据来源于 Flash&lt;br&gt;data size ：32 bit&lt;br&gt;pc[63:2] 为地址&lt;br&gt;pc[1:0] 为 offset（0,2）" style="text;strokeColor=none;fillColor=none;align=left;verticalAlign=top;spacingLeft=4;spacingRight=4;overflow=hidden;rotatable=0;points=[[0,0.5],[1,0.5]];portConstraint=eastwest;whiteSpace=wrap;html=1;" parent="120" vertex="1">
                    <mxGeometry y="110" width="140" height="100" as="geometry"/>
                </mxCell>
                <mxCell id="123" value="3. 当一次去指令无法得到一条有效指令时，需要一个 reg[15:0] 来存储半条指令，等下次数据再拼接" style="text;strokeColor=none;fillColor=none;align=left;verticalAlign=top;spacingLeft=4;spacingRight=4;overflow=hidden;rotatable=0;points=[[0,0.5],[1,0.5]];portConstraint=eastwest;whiteSpace=wrap;html=1;" parent="120" vertex="1">
                    <mxGeometry y="210" width="140" height="90" as="geometry"/>
                </mxCell>
                <mxCell id="125" value="4. 当一次去指令无法得到一条有效指令时，需要一个 reg[15:0] 来存储半条指令，等下次数据再拼接" style="text;strokeColor=none;fillColor=none;align=left;verticalAlign=top;spacingLeft=4;spacingRight=4;overflow=hidden;rotatable=0;points=[[0,0.5],[1,0.5]];portConstraint=eastwest;whiteSpace=wrap;html=1;" parent="120" vertex="1">
                    <mxGeometry y="300" width="140" height="90" as="geometry"/>
                </mxCell>
                <mxCell id="126" value="FIFO 要求（输出侧）" style="swimlane;fontStyle=0;childLayout=stackLayout;horizontal=1;startSize=26;fillColor=none;horizontalStack=0;resizeParent=1;resizeParentMax=0;resizeLast=0;collapsible=1;marginBottom=0;html=1;" parent="1" vertex="1">
                    <mxGeometry x="560" y="350" width="140" height="188" as="geometry"/>
                </mxCell>
                <mxCell id="127" value="output o_valid：FIFO 里还有数据" style="text;strokeColor=none;fillColor=none;align=left;verticalAlign=top;spacingLeft=4;spacingRight=4;overflow=hidden;rotatable=0;points=[[0,0.5],[1,0.5]];portConstraint=eastwest;whiteSpace=wrap;html=1;" parent="126" vertex="1">
                    <mxGeometry y="26" width="140" height="44" as="geometry"/>
                </mxCell>
                <mxCell id="128" value="output o_data[31:0]: FIFO 中最后一个数据" style="text;strokeColor=none;fillColor=none;align=left;verticalAlign=top;spacingLeft=4;spacingRight=4;overflow=hidden;rotatable=0;points=[[0,0.5],[1,0.5]];portConstraint=eastwest;whiteSpace=wrap;html=1;" parent="126" vertex="1">
                    <mxGeometry y="70" width="140" height="38" as="geometry"/>
                </mxCell>
                <mxCell id="129" value="input o_ready：FIFO 读信号，o_valid&amp;amp;o_ready握手成功后消耗一个数据" style="text;strokeColor=none;fillColor=none;align=left;verticalAlign=top;spacingLeft=4;spacingRight=4;overflow=hidden;rotatable=0;points=[[0,0.5],[1,0.5]];portConstraint=eastwest;whiteSpace=wrap;html=1;" parent="126" vertex="1">
                    <mxGeometry y="108" width="140" height="80" as="geometry"/>
                </mxCell>
                <mxCell id="130" value="FIFO 要求（输入侧）" style="swimlane;fontStyle=0;childLayout=stackLayout;horizontal=1;startSize=26;fillColor=none;horizontalStack=0;resizeParent=1;resizeParentMax=0;resizeLast=0;collapsible=1;marginBottom=0;html=1;" parent="1" vertex="1">
                    <mxGeometry x="235" y="370" width="140" height="180" as="geometry"/>
                </mxCell>
                <mxCell id="131" value="input i_valid：FIFO 写信号，i_valid &amp;amp; i_ready握手成功后，写入一个数据" style="text;strokeColor=none;fillColor=none;align=left;verticalAlign=top;spacingLeft=4;spacingRight=4;overflow=hidden;rotatable=0;points=[[0,0.5],[1,0.5]];portConstraint=eastwest;whiteSpace=wrap;html=1;" parent="130" vertex="1">
                    <mxGeometry y="26" width="140" height="54" as="geometry"/>
                </mxCell>
                <mxCell id="132" value="output i_ready：表示FIFO里还有空位" style="text;strokeColor=none;fillColor=none;align=left;verticalAlign=top;spacingLeft=4;spacingRight=4;overflow=hidden;rotatable=0;points=[[0,0.5],[1,0.5]];portConstraint=eastwest;whiteSpace=wrap;html=1;" parent="130" vertex="1">
                    <mxGeometry y="80" width="140" height="40" as="geometry"/>
                </mxCell>
                <mxCell id="133" value="input i_data[31:0] 需要写入的数据" style="text;strokeColor=none;fillColor=none;align=left;verticalAlign=top;spacingLeft=4;spacingRight=4;overflow=hidden;rotatable=0;points=[[0,0.5],[1,0.5]];portConstraint=eastwest;whiteSpace=wrap;html=1;" parent="130" vertex="1">
                    <mxGeometry y="120" width="140" height="60" as="geometry"/>
                </mxCell>
                <mxCell id="134" value="采用 Stream FIFO 可以满足要求" style="text;html=1;align=center;verticalAlign=middle;resizable=0;points=[];autosize=1;strokeColor=none;fillColor=none;" parent="1" vertex="1">
                    <mxGeometry x="370" y="500" width="200" height="30" as="geometry"/>
                </mxCell>
                <mxCell id="135" value="FIFO" style="strokeWidth=2;html=1;shape=mxgraph.lean_mapping.fifo_sequence_flow;pointerEvents=1;fontStyle=0;fontSize=20;align=center;" parent="1" vertex="1">
                    <mxGeometry x="155" y="730" width="100" height="50" as="geometry"/>
                </mxCell>
                <mxCell id="136" value="取指接口设计" style="swimlane;fontStyle=0;childLayout=stackLayout;horizontal=1;startSize=26;fillColor=none;horizontalStack=0;resizeParent=1;resizeParentMax=0;resizeLast=0;collapsible=1;marginBottom=0;html=1;" parent="1" vertex="1">
                    <mxGeometry x="460" y="990" width="70" height="142" as="geometry"/>
                </mxCell>
                <mxCell id="137" value="+&amp;nbsp;" style="text;strokeColor=none;fillColor=none;align=left;verticalAlign=top;spacingLeft=4;spacingRight=4;overflow=hidden;rotatable=0;points=[[0,0.5],[1,0.5]];portConstraint=eastwest;whiteSpace=wrap;html=1;" parent="136" vertex="1">
                    <mxGeometry y="26" width="70" height="64" as="geometry"/>
                </mxCell>
                <mxCell id="138" value="Item 2" style="text;strokeColor=none;fillColor=none;align=left;verticalAlign=top;spacingLeft=4;spacingRight=4;overflow=hidden;rotatable=0;points=[[0,0.5],[1,0.5]];portConstraint=eastwest;whiteSpace=wrap;html=1;" parent="136" vertex="1">
                    <mxGeometry y="90" width="70" height="26" as="geometry"/>
                </mxCell>
                <mxCell id="139" value="Item 3" style="text;strokeColor=none;fillColor=none;align=left;verticalAlign=top;spacingLeft=4;spacingRight=4;overflow=hidden;rotatable=0;points=[[0,0.5],[1,0.5]];portConstraint=eastwest;whiteSpace=wrap;html=1;" parent="136" vertex="1">
                    <mxGeometry y="116" width="70" height="26" as="geometry"/>
                </mxCell>
                <mxCell id="140" value="取指模块" style="rounded=1;whiteSpace=wrap;html=1;" parent="1" vertex="1">
                    <mxGeometry x="-330" y="710" width="70" height="60" as="geometry"/>
                </mxCell>
                <mxCell id="141" value="Cache 或者 内存" style="rounded=1;whiteSpace=wrap;html=1;" parent="1" vertex="1">
                    <mxGeometry x="-80" y="710" width="120" height="60" as="geometry"/>
                </mxCell>
                <mxCell id="142" value="" style="endArrow=classic;html=1;exitX=1.026;exitY=0.359;exitDx=0;exitDy=0;exitPerimeter=0;entryX=0;entryY=0.367;entryDx=0;entryDy=0;entryPerimeter=0;" parent="1" source="140" target="141" edge="1">
                    <mxGeometry relative="1" as="geometry">
                        <mxPoint x="-250" y="730" as="sourcePoint"/>
                        <mxPoint x="-110" y="732" as="targetPoint"/>
                    </mxGeometry>
                </mxCell>
                <mxCell id="143" value="inst_cmd(Stream）" style="edgeLabel;resizable=0;html=1;align=center;verticalAlign=middle;" parent="142" connectable="0" vertex="1">
                    <mxGeometry relative="1" as="geometry"/>
                </mxCell>
                <mxCell id="144" value="Source" style="edgeLabel;resizable=0;html=1;align=left;verticalAlign=bottom;" parent="142" connectable="0" vertex="1">
                    <mxGeometry x="-1" relative="1" as="geometry"/>
                </mxCell>
                <mxCell id="145" value="Target" style="edgeLabel;resizable=0;html=1;align=right;verticalAlign=bottom;" parent="142" connectable="0" vertex="1">
                    <mxGeometry x="1" relative="1" as="geometry"/>
                </mxCell>
                <mxCell id="149" value="" style="endArrow=classic;html=1;entryX=1;entryY=0.833;entryDx=0;entryDy=0;entryPerimeter=0;exitX=-0.025;exitY=0.866;exitDx=0;exitDy=0;exitPerimeter=0;" parent="1" source="141" target="140" edge="1">
                    <mxGeometry relative="1" as="geometry">
                        <mxPoint x="-70" y="830" as="sourcePoint"/>
                        <mxPoint x="-250" y="810" as="targetPoint"/>
                    </mxGeometry>
                </mxCell>
                <mxCell id="150" value="inst_rsp(stream)&lt;br&gt;m2sPipe(hold_payload)" style="edgeLabel;resizable=0;html=1;align=center;verticalAlign=middle;" parent="149" connectable="0" vertex="1">
                    <mxGeometry relative="1" as="geometry"/>
                </mxCell>
                <mxCell id="151" value="Source" style="edgeLabel;resizable=0;html=1;align=left;verticalAlign=bottom;" parent="149" connectable="0" vertex="1">
                    <mxGeometry x="-1" relative="1" as="geometry">
                        <mxPoint x="-37" as="offset"/>
                    </mxGeometry>
                </mxCell>
                <mxCell id="152" value="Target" style="edgeLabel;resizable=0;html=1;align=right;verticalAlign=bottom;" parent="149" connectable="0" vertex="1">
                    <mxGeometry x="1" relative="1" as="geometry">
                        <mxPoint x="40" as="offset"/>
                    </mxGeometry>
                </mxCell>
                <mxCell id="154" value="INST_FIFO" style="strokeWidth=2;html=1;shape=mxgraph.lean_mapping.fifo_sequence_flow;pointerEvents=1;fontStyle=0;fontSize=20;align=center;" parent="1" vertex="1">
                    <mxGeometry x="40" y="1190" width="195" height="40" as="geometry"/>
                </mxCell>
                <mxCell id="155" value="rsp_buf" style="shadow=0;dashed=0;align=center;html=1;strokeWidth=1;shape=mxgraph.rtl.abstract.entity;left=,:clk;right=,:np;top=0;bottom=0;drawPins=0;snapToPoint=1;resizable=0;editable=1;fontSize=10;" parent="1" vertex="1">
                    <mxGeometry x="-270" y="800" width="40" height="60" as="geometry"/>
                </mxCell>
                <mxCell id="157" value="" style="endArrow=classic;html=1;fontSize=10;exitX=0.25;exitY=1;exitDx=0;exitDy=0;entryX=0;entryY=0.5;entryDx=0;entryDy=0;entryPerimeter=0;" parent="1" source="140" target="155" edge="1">
                    <mxGeometry relative="1" as="geometry">
                        <mxPoint x="-300" y="900" as="sourcePoint"/>
                        <mxPoint x="-200" y="900" as="targetPoint"/>
                        <Array as="points">
                            <mxPoint x="-312" y="830"/>
                        </Array>
                    </mxGeometry>
                </mxCell>
                <mxCell id="158" value="inst_rsp_D(64bit)" style="edgeLabel;resizable=0;html=1;align=center;verticalAlign=middle;fontSize=10;" parent="157" connectable="0" vertex="1">
                    <mxGeometry relative="1" as="geometry">
                        <mxPoint y="-21" as="offset"/>
                    </mxGeometry>
                </mxCell>
                <mxCell id="166" value="INST_RSP" style="swimlane;fontStyle=0;childLayout=stackLayout;horizontal=1;startSize=26;fillColor=none;horizontalStack=0;resizeParent=1;resizeParentMax=0;resizeLast=0;collapsible=1;marginBottom=0;html=1;" parent="1" vertex="1">
                    <mxGeometry x="-640" y="795" width="140" height="290" as="geometry"/>
                </mxCell>
                <mxCell id="167" value="+ 在 RISCV 中，一个 inst_pack 为 16 bit，INST_RSP 中含有 4 个 inst_pack&amp;nbsp;" style="text;strokeColor=none;fillColor=none;align=left;verticalAlign=top;spacingLeft=4;spacingRight=4;overflow=hidden;rotatable=0;points=[[0,0.5],[1,0.5]];portConstraint=eastwest;whiteSpace=wrap;html=1;" parent="166" vertex="1">
                    <mxGeometry y="26" width="140" height="64" as="geometry"/>
                </mxCell>
                <mxCell id="169" value="+ 通过 inst_pack[1:0] 可以判断该条指令的长度，16bit 或者 32bit。" style="text;strokeColor=none;fillColor=none;align=left;verticalAlign=top;spacingLeft=4;spacingRight=4;overflow=hidden;rotatable=0;points=[[0,0.5],[1,0.5]];portConstraint=eastwest;whiteSpace=wrap;html=1;" parent="166" vertex="1">
                    <mxGeometry y="90" width="140" height="60" as="geometry"/>
                </mxCell>
                <mxCell id="168" value="+ 其中会有一条 32bit 的指令，前 16bit 和后 16bit 分别在两个 INST_RSP 的情况" style="text;strokeColor=none;fillColor=none;align=left;verticalAlign=top;spacingLeft=4;spacingRight=4;overflow=hidden;rotatable=0;points=[[0,0.5],[1,0.5]];portConstraint=eastwest;whiteSpace=wrap;html=1;" parent="166" vertex="1">
                    <mxGeometry y="150" width="140" height="70" as="geometry"/>
                </mxCell>
                <mxCell id="172" value="+ rsp_buf 用于缓存上一个 INST_RSP,用于解决 32bit 的跨域问题" style="text;strokeColor=none;fillColor=none;align=left;verticalAlign=top;spacingLeft=4;spacingRight=4;overflow=hidden;rotatable=0;points=[[0,0.5],[1,0.5]];portConstraint=eastwest;whiteSpace=wrap;html=1;" parent="166" vertex="1">
                    <mxGeometry y="220" width="140" height="70" as="geometry"/>
                </mxCell>
                <mxCell id="174" value="" style="group" parent="1" vertex="1" connectable="0">
                    <mxGeometry x="-230" y="860" width="140" height="160" as="geometry"/>
                </mxCell>
                <mxCell id="170" value="{ &quot;reg&quot;: [&#10;    { &quot;name&quot;: &quot;PAK0&quot;, &quot;bits&quot;: 16, &quot;attr&quot;: &quot;&quot;, &quot;type&quot;:1 },&#10;    { &quot;name&quot;: &quot;PAK1&quot;, &quot;bits&quot;: 16, &quot;attr&quot;: &quot;&quot;, &quot;type&quot;:2 },&#10;    { &quot;name&quot;: &quot;PAK2&quot;, &quot;bits&quot;: 16, &quot;attr&quot;: &quot;&quot;, &quot;type&quot;:3 },&#10;    { &quot;name&quot;: &quot;PAK3&quot;, &quot;bits&quot;: 16, &quot;attr&quot;: &quot;&quot;, &quot;type&quot;:4 }&#10;]}" style="shadow=0;dashed=0;align=left;strokeWidth=1;labelBackgroundColor=#ffffff;noLabel=1;shape=mxgraph.wavedrom.abstract.bitfield;fontSize=10;bits=64;lanes=4;compact=0;perimeter=rectanglePerimeter;" parent="174" vertex="1">
                    <mxGeometry y="30" width="140" height="130" as="geometry"/>
                </mxCell>
                <mxCell id="171" value="INST_RSP_Q" style="text;html=1;align=center;verticalAlign=middle;resizable=0;points=[];autosize=1;strokeColor=none;fillColor=none;container=1;" parent="174" vertex="1">
                    <mxGeometry x="20" width="100" height="30" as="geometry"/>
                </mxCell>
                <mxCell id="175" value="" style="group" parent="1" vertex="1" connectable="0">
                    <mxGeometry x="-413" y="860" width="140" height="160" as="geometry"/>
                </mxCell>
                <mxCell id="160" value="{ &quot;reg&quot;: [&#10;    { &quot;name&quot;: &quot;PAK0&quot;, &quot;bits&quot;: 16, &quot;attr&quot;: &quot;&quot;, &quot;type&quot;:6 },&#10;    { &quot;name&quot;: &quot;PAK1&quot;, &quot;bits&quot;: 16, &quot;attr&quot;: &quot;&quot;, &quot;type&quot;:5 },&#10;    { &quot;name&quot;: &quot;PAK2&quot;, &quot;bits&quot;: 16, &quot;attr&quot;: &quot;&quot;, &quot;type&quot;:4 },&#10;    { &quot;name&quot;: &quot;PAK3&quot;, &quot;bits&quot;: 16, &quot;attr&quot;: &quot;&quot;, &quot;type&quot;:3 }&#10;]}" style="shadow=0;dashed=0;align=left;strokeWidth=1;labelBackgroundColor=#ffffff;noLabel=1;shape=mxgraph.wavedrom.abstract.bitfield;fontSize=10;bits=64;lanes=4;compact=0;perimeter=rectanglePerimeter;" parent="175" vertex="1">
                    <mxGeometry y="30" width="140" height="130" as="geometry"/>
                </mxCell>
                <mxCell id="161" value="INST_RSP_D" style="text;html=1;align=center;verticalAlign=middle;resizable=0;points=[];autosize=1;strokeColor=none;fillColor=none;" parent="175" vertex="1">
                    <mxGeometry x="20" width="100" height="30" as="geometry"/>
                </mxCell>
                <mxCell id="176" value="gen_inst" style="shadow=0;dashed=0;align=center;html=1;strokeWidth=1;shape=mxgraph.rtl.abstract.entity;verticalAlign=middle;spacing=0;spacingTop=7;left=0;right=0;top=2;bottom=1;drawPins=1;snapToPoint=1;resizable=1;editable=1;movable=1;rotatable=1;deletable=1;connectable=1;noLabel=0;bottomAnchor=right;rightAnchor=right;rightRot=180;topRot=0;rightArr=,1;kind=combinational;type_loc=top;bottomRot=0;leftRot=0;fontSize=8;labelPosition=center;verticalLabelPosition=middle;" parent="1" vertex="1">
                    <mxGeometry x="-340" y="1085" width="60" height="60" as="geometry"/>
                </mxCell>
                <mxCell id="181" value="" style="endArrow=none;html=1;rounded=0;startSize=14;endSize=14;sourcePerimeterSpacing=8;targetPerimeterSpacing=8;curved=1;entryX=0;entryY=0;entryDx=20;entryDy=0;entryPerimeter=0;exitX=0.956;exitY=0.92;exitDx=0;exitDy=0;exitPerimeter=0;" parent="1" source="160" target="176" edge="1">
                    <mxGeometry width="50" height="50" relative="1" as="geometry">
                        <mxPoint x="-270" y="1010" as="sourcePoint"/>
                        <mxPoint x="-350" y="1040" as="targetPoint"/>
                        <Array as="points">
                            <mxPoint x="-270" y="1010"/>
                            <mxPoint x="-270" y="1020"/>
                            <mxPoint x="-270" y="1030"/>
                            <mxPoint x="-280" y="1030"/>
                            <mxPoint x="-310" y="1030"/>
                            <mxPoint x="-320" y="1030"/>
                            <mxPoint x="-320" y="1040"/>
                        </Array>
                    </mxGeometry>
                </mxCell>
                <mxCell id="188" value="PAK0" style="edgeLabel;html=1;align=center;verticalAlign=middle;resizable=0;points=[];" parent="181" vertex="1" connectable="0">
                    <mxGeometry x="0.7617" y="1" relative="1" as="geometry">
                        <mxPoint y="6" as="offset"/>
                    </mxGeometry>
                </mxCell>
                <mxCell id="187" value="" style="endArrow=none;html=1;rounded=0;startSize=14;endSize=14;sourcePerimeterSpacing=8;targetPerimeterSpacing=8;curved=1;exitX=0;exitY=0;exitDx=40;exitDy=0;exitPerimeter=0;entryX=0.949;entryY=0.64;entryDx=0;entryDy=0;entryPerimeter=0;" parent="1" source="176" target="160" edge="1">
                    <mxGeometry width="50" height="50" relative="1" as="geometry">
                        <mxPoint x="-220" y="1110" as="sourcePoint"/>
                        <mxPoint x="-170" y="1060" as="targetPoint"/>
                        <Array as="points">
                            <mxPoint x="-280" y="1060"/>
                            <mxPoint x="-270" y="1060"/>
                            <mxPoint x="-260" y="1040"/>
                            <mxPoint x="-260" y="1020"/>
                            <mxPoint x="-260" y="970"/>
                        </Array>
                    </mxGeometry>
                </mxCell>
                <mxCell id="189" value="PAK1" style="edgeLabel;html=1;align=center;verticalAlign=middle;resizable=0;points=[];" parent="187" vertex="1" connectable="0">
                    <mxGeometry x="-0.378" y="1" relative="1" as="geometry">
                        <mxPoint x="-12" y="21" as="offset"/>
                    </mxGeometry>
                </mxCell>
                <mxCell id="195" value="" style="group;verticalAlign=middle;" parent="1" vertex="1" connectable="0">
                    <mxGeometry x="-270" y="1060" width="75" height="85" as="geometry"/>
                </mxCell>
                <mxCell id="190" value="gen_inst" style="shadow=0;dashed=0;align=center;html=1;strokeWidth=1;shape=mxgraph.rtl.abstract.entity;verticalAlign=middle;spacing=0;spacingTop=7;left=0;right=0;top=2;bottom=1;drawPins=1;snapToPoint=1;resizable=1;editable=1;movable=1;rotatable=1;deletable=1;connectable=1;noLabel=0;bottomAnchor=left;rightAnchor=right;rightRot=180;topRot=0;rightArr=,1;kind=combinational;type_loc=top;fontSize=8;" parent="195" vertex="1">
                    <mxGeometry x="10" y="25" width="60" height="60" as="geometry"/>
                </mxCell>
                <mxCell id="193" value="PK1" style="text;html=1;align=center;verticalAlign=middle;resizable=0;points=[];autosize=1;strokeColor=none;fillColor=none;" parent="195" vertex="1">
                    <mxGeometry width="50" height="30" as="geometry"/>
                </mxCell>
                <mxCell id="194" value="PK2" style="text;html=1;align=center;verticalAlign=middle;resizable=0;points=[];autosize=1;strokeColor=none;fillColor=none;" parent="195" vertex="1">
                    <mxGeometry x="25" width="50" height="30" as="geometry"/>
                </mxCell>
                <mxCell id="196" value="" style="group" parent="1" vertex="1" connectable="0">
                    <mxGeometry x="-195" y="1060" width="75" height="85" as="geometry"/>
                </mxCell>
                <mxCell id="197" value="gen_inst" style="shadow=0;dashed=0;align=center;html=1;strokeWidth=1;shape=mxgraph.rtl.abstract.entity;verticalAlign=middle;spacing=0;spacingTop=7;left=0;right=0;top=2;bottom=1;drawPins=1;snapToPoint=1;resizable=1;editable=1;movable=1;rotatable=1;deletable=1;connectable=1;noLabel=0;bottomAnchor=left;rightAnchor=right;rightRot=180;topRot=0;rightArr=,1;kind=combinational;type_loc=top;fontSize=8;" parent="196" vertex="1">
                    <mxGeometry x="10" y="25" width="60" height="60" as="geometry"/>
                </mxCell>
                <mxCell id="198" value="PK2" style="text;html=1;align=center;verticalAlign=middle;resizable=0;points=[];autosize=1;strokeColor=none;fillColor=none;" parent="196" vertex="1">
                    <mxGeometry width="50" height="30" as="geometry"/>
                </mxCell>
                <mxCell id="199" value="PK3" style="text;html=1;align=center;verticalAlign=middle;resizable=0;points=[];autosize=1;strokeColor=none;fillColor=none;" parent="196" vertex="1">
                    <mxGeometry x="25" width="50" height="30" as="geometry"/>
                </mxCell>
                <mxCell id="204" value="" style="group" parent="1" vertex="1" connectable="0">
                    <mxGeometry x="-110" y="1060" width="85" height="85" as="geometry"/>
                </mxCell>
                <mxCell id="205" value="gen_inst" style="shadow=0;dashed=0;align=center;html=1;strokeWidth=1;shape=mxgraph.rtl.abstract.entity;verticalAlign=middle;spacing=0;spacingTop=7;left=0;right=0;top=2;bottom=1;drawPins=1;snapToPoint=1;resizable=1;editable=1;movable=1;rotatable=1;deletable=1;connectable=1;noLabel=0;bottomAnchor=left;rightAnchor=right;rightRot=180;topRot=0;rightArr=,1;kind=combinational;type_loc=top;bottomRot=0;fontSize=9;" parent="204" vertex="1">
                    <mxGeometry x="10" y="25" width="60" height="60" as="geometry"/>
                </mxCell>
                <mxCell id="206" value="PK3" style="text;html=1;align=center;verticalAlign=middle;resizable=0;points=[];autosize=1;strokeColor=none;fillColor=none;" parent="204" vertex="1">
                    <mxGeometry width="50" height="30" as="geometry"/>
                </mxCell>
                <mxCell id="207" value="null" style="text;html=1;align=center;verticalAlign=middle;resizable=0;points=[];autosize=1;strokeColor=none;fillColor=none;" parent="204" vertex="1">
                    <mxGeometry x="40" width="40" height="30" as="geometry"/>
                </mxCell>
                <mxCell id="208" value="isnt(flow)" style="text;html=1;align=center;verticalAlign=middle;resizable=0;points=[];autosize=1;strokeColor=none;fillColor=none;" parent="1" vertex="1">
                    <mxGeometry x="-343" y="1139" width="70" height="30" as="geometry"/>
                </mxCell>
                <mxCell id="209" value="isnt(flow)" style="text;html=1;align=center;verticalAlign=middle;resizable=0;points=[];autosize=1;strokeColor=none;fillColor=none;" parent="1" vertex="1">
                    <mxGeometry x="-265" y="1139" width="70" height="30" as="geometry"/>
                </mxCell>
                <mxCell id="210" value="isnt(flow)" style="text;html=1;align=center;verticalAlign=middle;resizable=0;points=[];autosize=1;strokeColor=none;fillColor=none;" parent="1" vertex="1">
                    <mxGeometry x="-192.5" y="1139" width="70" height="30" as="geometry"/>
                </mxCell>
                <mxCell id="211" value="isnt(flow)" style="text;html=1;align=center;verticalAlign=middle;resizable=0;points=[];autosize=1;strokeColor=none;fillColor=none;" parent="1" vertex="1">
                    <mxGeometry x="-102.5" y="1139" width="70" height="30" as="geometry"/>
                </mxCell>
                <mxCell id="214" value="cmd.pc_offset 控制 valid" style="text;html=1;align=center;verticalAlign=middle;resizable=0;points=[];autosize=1;strokeColor=none;fillColor=none;" parent="1" vertex="1">
                    <mxGeometry x="-760" y="1200" width="150" height="30" as="geometry"/>
                </mxCell>
                <mxCell id="215" value="" style="group;fontSize=10;" parent="1" vertex="1" connectable="0">
                    <mxGeometry x="-430" y="1060" width="85" height="109" as="geometry"/>
                </mxCell>
                <mxCell id="200" value="" style="group" parent="215" vertex="1" connectable="0">
                    <mxGeometry width="85" height="85" as="geometry"/>
                </mxCell>
                <mxCell id="201" value="&lt;p style=&quot;line-height: 320%;&quot;&gt;gen_inst&lt;/p&gt;" style="shadow=0;dashed=0;align=center;html=1;strokeWidth=1;shape=mxgraph.rtl.abstract.entity;verticalAlign=top;spacing=0;spacingTop=7;left=0;right=0;top=2;bottom=1;drawPins=1;snapToPoint=1;resizable=1;editable=1;movable=1;rotatable=1;deletable=1;connectable=1;noLabel=0;bottomAnchor=left;rightAnchor=right;rightRot=180;topRot=0;rightArr=,1;kind=combinational;type_loc=top;fontSize=7;" parent="200" vertex="1">
                    <mxGeometry x="10" y="25" width="60" height="60" as="geometry"/>
                </mxCell>
                <mxCell id="202" value="PK3_Q" style="text;html=1;align=center;verticalAlign=middle;resizable=0;points=[];autosize=1;strokeColor=none;fillColor=none;" parent="200" vertex="1">
                    <mxGeometry x="-5" width="60" height="30" as="geometry"/>
                </mxCell>
                <mxCell id="203" value="&amp;nbsp;PK0" style="text;html=1;align=center;verticalAlign=middle;resizable=0;points=[];autosize=1;strokeColor=none;fillColor=none;" parent="200" vertex="1">
                    <mxGeometry x="35" width="50" height="30" as="geometry"/>
                </mxCell>
                <mxCell id="212" value="isnt(flow)" style="text;html=1;align=center;verticalAlign=middle;resizable=0;points=[];autosize=1;strokeColor=none;fillColor=none;" parent="215" vertex="1">
                    <mxGeometry x="5" y="79" width="70" height="30" as="geometry"/>
                </mxCell>
                <mxCell id="224" style="edgeStyle=none;curved=1;rounded=0;orthogonalLoop=1;jettySize=auto;html=1;entryX=0.5;entryY=0;entryDx=0;entryDy=0;fontSize=18;endArrow=open;startSize=14;endSize=14;sourcePerimeterSpacing=8;targetPerimeterSpacing=8;" parent="1" source="219" target="220" edge="1">
                    <mxGeometry relative="1" as="geometry"/>
                </mxCell>
                <mxCell id="230" style="edgeStyle=none;curved=1;rounded=0;orthogonalLoop=1;jettySize=auto;html=1;entryX=0;entryY=0.5;entryDx=0;entryDy=0;fontSize=18;endArrow=open;startSize=14;endSize=14;sourcePerimeterSpacing=8;targetPerimeterSpacing=8;" parent="1" source="219" target="154" edge="1">
                    <mxGeometry relative="1" as="geometry"/>
                </mxCell>
                <mxCell id="231" value="push" style="edgeLabel;html=1;align=center;verticalAlign=middle;resizable=0;points=[];fontSize=18;" parent="230" vertex="1" connectable="0">
                    <mxGeometry x="-0.1861" y="3" relative="1" as="geometry">
                        <mxPoint as="offset"/>
                    </mxGeometry>
                </mxCell>
                <mxCell id="219" value="这是一个复杂的模块" style="rounded=0;whiteSpace=wrap;html=1;fontSize=18;" parent="1" vertex="1">
                    <mxGeometry x="-390" y="1180" width="335" height="60" as="geometry"/>
                </mxCell>
                <mxCell id="220" value="复杂模块的功能" style="swimlane;fontStyle=0;childLayout=stackLayout;horizontal=1;startSize=26;fillColor=none;horizontalStack=0;resizeParent=1;resizeParentMax=0;resizeLast=0;collapsible=1;marginBottom=0;html=1;fontSize=18;" parent="1" vertex="1">
                    <mxGeometry x="-358.75" y="1410" width="272.5" height="330" as="geometry"/>
                </mxCell>
                <mxCell id="221" value="+ INST_RSP 会产生多条 inst，需要将 inst 按顺序压入 INST_FIFO" style="text;strokeColor=none;fillColor=none;align=left;verticalAlign=top;spacingLeft=4;spacingRight=4;overflow=hidden;rotatable=0;points=[[0,0.5],[1,0.5]];portConstraint=eastwest;whiteSpace=wrap;html=1;fontSize=18;" parent="220" vertex="1">
                    <mxGeometry y="26" width="272.5" height="84" as="geometry"/>
                </mxCell>
                <mxCell id="223" value="+ 产生的 isnt 可能为分支指令，可以对分支指令进行分支预测，如果预测结果为跳转的话，停止将剩余指令压入 FIFO，并且设置下一个 inst_cmd" style="text;strokeColor=none;fillColor=none;align=left;verticalAlign=top;spacingLeft=4;spacingRight=4;overflow=hidden;rotatable=0;points=[[0,0.5],[1,0.5]];portConstraint=eastwest;whiteSpace=wrap;html=1;fontSize=18;" parent="220" vertex="1">
                    <mxGeometry y="110" width="272.5" height="220" as="geometry"/>
                </mxCell>
                <mxCell id="226" value="INST_CMD" style="swimlane;fontStyle=0;childLayout=stackLayout;horizontal=1;startSize=26;fillColor=none;horizontalStack=0;resizeParent=1;resizeParentMax=0;resizeLast=0;collapsible=1;marginBottom=0;html=1;fontSize=18;" parent="1" vertex="1">
                    <mxGeometry x="-600" y="601" width="140" height="142" as="geometry"/>
                </mxCell>
                <mxCell id="227" value="+&amp;nbsp;&amp;nbsp;" style="text;strokeColor=none;fillColor=none;align=left;verticalAlign=top;spacingLeft=4;spacingRight=4;overflow=hidden;rotatable=0;points=[[0,0.5],[1,0.5]];portConstraint=eastwest;whiteSpace=wrap;html=1;fontSize=18;" parent="226" vertex="1">
                    <mxGeometry y="26" width="140" height="64" as="geometry"/>
                </mxCell>
                <mxCell id="228" value="Item 2" style="text;strokeColor=none;fillColor=none;align=left;verticalAlign=top;spacingLeft=4;spacingRight=4;overflow=hidden;rotatable=0;points=[[0,0.5],[1,0.5]];portConstraint=eastwest;whiteSpace=wrap;html=1;fontSize=18;" parent="226" vertex="1">
                    <mxGeometry y="90" width="140" height="26" as="geometry"/>
                </mxCell>
                <mxCell id="229" value="Item 3" style="text;strokeColor=none;fillColor=none;align=left;verticalAlign=top;spacingLeft=4;spacingRight=4;overflow=hidden;rotatable=0;points=[[0,0.5],[1,0.5]];portConstraint=eastwest;whiteSpace=wrap;html=1;fontSize=18;" parent="226" vertex="1">
                    <mxGeometry y="116" width="140" height="26" as="geometry"/>
                </mxCell>
                <mxCell id="232" value="rvc 跨域问题" style="swimlane;fontStyle=0;childLayout=stackLayout;horizontal=1;startSize=26;fillColor=none;horizontalStack=0;resizeParent=1;resizeParentMax=0;resizeLast=0;collapsible=1;marginBottom=0;html=1;fontSize=18;" parent="1" vertex="1">
                    <mxGeometry x="-780" y="1240" width="260" height="434" as="geometry"/>
                </mxCell>
                <mxCell id="233" value="+ 需要缓存上一 inst_rsp 的高 16bit，和 pc" style="text;strokeColor=none;fillColor=none;align=left;verticalAlign=top;spacingLeft=4;spacingRight=4;overflow=hidden;rotatable=0;points=[[0,0.5],[1,0.5]];portConstraint=eastwest;whiteSpace=wrap;html=1;fontSize=18;" parent="232" vertex="1">
                    <mxGeometry y="26" width="260" height="104" as="geometry"/>
                </mxCell>
                <mxCell id="234" value="+ 将当前 inst_rsp 和上一个换成的 inst_pak 一起进行指令提取，判断第一条指令是否是跨域的。然后分别计算出每条指令的 pc （需要用到上一个 inst_rsp 缓存的 pc）" style="text;strokeColor=none;fillColor=none;align=left;verticalAlign=top;spacingLeft=4;spacingRight=4;overflow=hidden;rotatable=0;points=[[0,0.5],[1,0.5]];portConstraint=eastwest;whiteSpace=wrap;html=1;fontSize=18;" parent="232" vertex="1">
                    <mxGeometry y="130" width="260" height="210" as="geometry"/>
                </mxCell>
                <mxCell id="235" value="+ s" style="text;strokeColor=none;fillColor=none;align=left;verticalAlign=top;spacingLeft=4;spacingRight=4;overflow=hidden;rotatable=0;points=[[0,0.5],[1,0.5]];portConstraint=eastwest;whiteSpace=wrap;html=1;fontSize=18;" parent="232" vertex="1">
                    <mxGeometry y="340" width="260" height="94" as="geometry"/>
                </mxCell>
                <mxCell id="237" value="push 性能说明" style="swimlane;fontStyle=0;childLayout=stackLayout;horizontal=1;startSize=26;fillColor=none;horizontalStack=0;resizeParent=1;resizeParentMax=0;resizeLast=0;collapsible=1;marginBottom=0;html=1;" parent="1" vertex="1">
                    <mxGeometry x="-60" y="1250" width="120" height="156" as="geometry"/>
                </mxCell>
                <mxCell id="238" value="+ 每个 insts_pack 压入最少有一个气泡&amp;nbsp;" style="text;strokeColor=none;fillColor=none;align=left;verticalAlign=top;spacingLeft=4;spacingRight=4;overflow=hidden;rotatable=0;points=[[0,0.5],[1,0.5]];portConstraint=eastwest;whiteSpace=wrap;html=1;" parent="237" vertex="1">
                    <mxGeometry y="26" width="120" height="44" as="geometry"/>
                </mxCell>
                <mxCell id="239" value="+ 气泡 1,将 insts_pack 用寄存器缓存" style="text;strokeColor=none;fillColor=none;align=left;verticalAlign=top;spacingLeft=4;spacingRight=4;overflow=hidden;rotatable=0;points=[[0,0.5],[1,0.5]];portConstraint=eastwest;whiteSpace=wrap;html=1;" parent="237" vertex="1">
                    <mxGeometry y="70" width="120" height="60" as="geometry"/>
                </mxCell>
                <mxCell id="240" value="Item 3" style="text;strokeColor=none;fillColor=none;align=left;verticalAlign=top;spacingLeft=4;spacingRight=4;overflow=hidden;rotatable=0;points=[[0,0.5],[1,0.5]];portConstraint=eastwest;whiteSpace=wrap;html=1;" parent="237" vertex="1">
                    <mxGeometry y="130" width="120" height="26" as="geometry"/>
                </mxCell>
                <mxCell id="241" value="指令分解模块说明" style="swimlane;fontStyle=0;childLayout=stackLayout;horizontal=1;startSize=26;fillColor=none;horizontalStack=0;resizeParent=1;resizeParentMax=0;resizeLast=0;collapsible=1;marginBottom=0;html=1;" parent="1" vertex="1">
                    <mxGeometry x="-70" y="870" width="140" height="176" as="geometry"/>
                </mxCell>
                <mxCell id="242" value="+ 该模块用于将一个 fetch_rsp 分解为多条指令" style="text;strokeColor=none;fillColor=none;align=left;verticalAlign=top;spacingLeft=4;spacingRight=4;overflow=hidden;rotatable=0;points=[[0,0.5],[1,0.5]];portConstraint=eastwest;whiteSpace=wrap;html=1;" parent="241" vertex="1">
                    <mxGeometry y="26" width="140" height="64" as="geometry"/>
                </mxCell>
                <mxCell id="243" value="+ 组合逻辑电路,但是用到了寄存器来保存上半条指令" style="text;strokeColor=none;fillColor=none;align=left;verticalAlign=top;spacingLeft=4;spacingRight=4;overflow=hidden;rotatable=0;points=[[0,0.5],[1,0.5]];portConstraint=eastwest;whiteSpace=wrap;html=1;" parent="241" vertex="1">
                    <mxGeometry y="90" width="140" height="60" as="geometry"/>
                </mxCell>
                <mxCell id="244" value="Item 3" style="text;strokeColor=none;fillColor=none;align=left;verticalAlign=top;spacingLeft=4;spacingRight=4;overflow=hidden;rotatable=0;points=[[0,0.5],[1,0.5]];portConstraint=eastwest;whiteSpace=wrap;html=1;" parent="241" vertex="1">
                    <mxGeometry y="150" width="140" height="26" as="geometry"/>
                </mxCell>
                <mxCell id="245" value="pc" style="rounded=0;whiteSpace=wrap;html=1;" vertex="1" parent="1">
                    <mxGeometry x="-55" y="2000" width="160" height="80" as="geometry"/>
                </mxCell>
                <mxCell id="246" value="icache" style="rounded=0;whiteSpace=wrap;html=1;" vertex="1" parent="1">
                    <mxGeometry x="155" y="2000" width="160" height="80" as="geometry"/>
                </mxCell>
            </root>
        </mxGraphModel>
    </diagram>
</mxfile>